<?xml version="1.0" encoding="UTF-8" standalone="no"?>
<!-- Created with Inkscape (http://www.inkscape.org/) -->

<svg
   version="1.1"
   id="svg2"
   xml:space="preserve"
   width="1920"
   height="1306.6667"
   viewBox="0 0 1920 1306.6667"
   sodipodi:docname="back.eps"
   xmlns:inkscape="http://www.inkscape.org/namespaces/inkscape"
   xmlns:sodipodi="http://sodipodi.sourceforge.net/DTD/sodipodi-0.dtd"
   xmlns="http://www.w3.org/2000/svg"
   xmlns:svg="http://www.w3.org/2000/svg"><defs
     id="defs6"><clipPath
       clipPathUnits="userSpaceOnUse"
       id="clipPath60"><path
         d="M 9527.21,3671.46 8933.97,5039.54 10831.9,9673.27 12819.4,7894.51 Z M 10112.7,252.109 9223.22,3037.54 12068,6686.69 Z M 9080.96,3099.02 c -0.06,-0.07 -0.12,-0.14 -0.18,-0.22 L 6743.31,100.43 5419.21,962.191 5925.28,2390.43 9306.02,3387.71 Z M 3539.17,2185.75 2920.2,3549.16 3348.38,5329 5782.33,2436.1 5289.89,1046.35 Z M 2433.16,843.41 1611.72,3261.21 3439.81,2071.45 c 0.01,0 0.01,-0.01 0.02,-0.01 l 663.1,-431.57 z M 1413.63,6867.65 4128.49,9212.96 2819.36,3771.29 Z m 4692.47,2122 37.23,-5534.72 L 5840.42,2600.05 3406.5,5492.92 Z M 7721.29,7459.11 9406.13,3573.64 5987.17,2565.07 Z M 10637.5,9594.54 8850.62,5231.78 7807.57,7637.18 Z M 14400,6660.03 13197.1,4216.3 12340.3,7035.96 14400,9678.01 V 9800 h -95.1 L 12911.9,8013.09 10915.2,9800 h -244.3 L 7862.46,7857.53 8554.83,9800 h -158.9 L 6290.55,3870.39 6252.72,9800 h -150.36 l 2.1,-567.01 -2639.32,-3418.66 858.1,3566.88 488.88,418.79 H 4584.39 L 1348.99,7010.03 82.3672,9800 H 0 V 9618.57 L 1253.31,6857.93 c 0.06,-0.14 0.13,-0.27 0.19,-0.41 L 3305.36,2337.93 0,4491.57 V 4312.36 L 1408.32,3393.59 2296.83,778.379 678.57,0 h 348.14 L 4250.29,1543.96 6622.62,0 h 232.59 L 9111.52,2894.26 10035.7,0 h 157.2 L 12257.2,6793.43 14325,0 h 75 V 268.172 L 13260.9,4006.61 14400,6320.44 Z"
         id="path58" /></clipPath><radialGradient
       fx="0"
       fy="0"
       cx="0"
       cy="0"
       r="1"
       gradientUnits="userSpaceOnUse"
       gradientTransform="matrix(8238.67,0,0,-8238.67,7200,4900)"
       spreadMethod="pad"
       id="radialGradient66"><stop
         style="stop-opacity:1;stop-color:#c7a862"
         offset="0"
         id="stop62" /><stop
         style="stop-opacity:1;stop-color:#504433"
         offset="1"
         id="stop64" /></radialGradient></defs><sodipodi:namedview
     id="namedview4"
     pagecolor="#ffffff"
     bordercolor="#666666"
     borderopacity="1.0"
     inkscape:pageshadow="2"
     inkscape:pageopacity="0.0"
     inkscape:pagecheckerboard="0" /><g
     id="g8"
     inkscape:groupmode="layer"
     inkscape:label="ink_ext_XXXXXX"
     transform="matrix(1.3333333,0,0,-1.3333333,0,1306.6667)"><g
       id="g10"
       transform="scale(0.1)"><path
         d="M 5987.17,2565.07 9406.13,3573.64 7721.29,7459.11 Z"
         style="fill:#343742;fill-opacity:1;fill-rule:nonzero;stroke:none"
         id="path12" /><path
         d="M 10831.9,9673.27 8933.97,5039.54 9527.21,3671.46 12819.4,7894.51 10831.9,9673.27"
         style="fill:#343742;fill-opacity:1;fill-rule:nonzero;stroke:none"
         id="path14" /><path
         d="M 5782.33,2436.1 3348.38,5329 2920.2,3549.16 3539.17,2185.75 5289.89,1046.35 5782.33,2436.1"
         style="fill:#343742;fill-opacity:1;fill-rule:nonzero;stroke:none"
         id="path16" /><path
         d="M 13197.1,4216.3 14400,6660.03 V 9678.01 L 12340.3,7035.96 13197.1,4216.3"
         style="fill:#343742;fill-opacity:1;fill-rule:nonzero;stroke:none"
         id="path18" /><path
         d="M 6855.21,0 H 10035.7 L 9111.52,2894.26 Z"
         style="fill:#343742;fill-opacity:1;fill-rule:nonzero;stroke:none"
         id="path20" /><path
         d="M 10192.9,0 H 14325 l -2067.8,6793.43 z"
         style="fill:#343742;fill-opacity:1;fill-rule:nonzero;stroke:none"
         id="path22" /><path
         d="M 10670.9,9800 H 8554.83 L 7862.46,7857.53 Z"
         style="fill:#343742;fill-opacity:1;fill-rule:nonzero;stroke:none"
         id="path24" /><path
         d="M 1408.32,3393.59 0,4312.36 V 0 H 678.57 L 2296.83,778.379 1408.32,3393.59"
         style="fill:#343742;fill-opacity:1;fill-rule:nonzero;stroke:none"
         id="path26" /><path
         d="m 1253.5,6857.52 c -0.06,0.14 -0.13,0.27 -0.19,0.41 L 0,9618.57 v -5127 L 3305.36,2337.93 1253.5,6857.52"
         style="fill:#343742;fill-opacity:1;fill-rule:nonzero;stroke:none"
         id="path28" /><path
         d="m 3465.14,5814.33 2639.32,3418.66 -2.1,567.01 H 4812.12 l -488.88,-418.79 -858.1,-3566.88"
         style="fill:#343742;fill-opacity:1;fill-rule:nonzero;stroke:none"
         id="path30" /><path
         d="M 8395.93,9800 H 6252.72 l 37.83,-5929.61 z"
         style="fill:#343742;fill-opacity:1;fill-rule:nonzero;stroke:none"
         id="path32" /><path
         d="M 1413.63,6867.65 2819.36,3771.29 4128.49,9212.96 Z"
         style="fill:#444957;fill-opacity:1;fill-rule:nonzero;stroke:none"
         id="path34" /><path
         d="m 9080.78,3098.8 c 0.06,0.08 0.12,0.15 0.18,0.22 L 9306.02,3387.71 5925.28,2390.43 5419.21,962.191 6743.31,100.43 9080.78,3098.8"
         style="fill:#444957;fill-opacity:1;fill-rule:nonzero;stroke:none"
         id="path36" /><path
         d="M 7807.57,7637.18 8850.62,5231.78 10637.5,9594.54 Z"
         style="fill:#444957;fill-opacity:1;fill-rule:nonzero;stroke:none"
         id="path38" /><path
         d="M 12068,6686.69 9223.22,3037.54 10112.7,252.109 Z"
         style="fill:#444957;fill-opacity:1;fill-rule:nonzero;stroke:none"
         id="path40" /><path
         d="M 14304.9,9800 H 10915.2 L 12911.9,8013.09 Z"
         style="fill:#444957;fill-opacity:1;fill-rule:nonzero;stroke:none"
         id="path42" /><path
         d="M 5840.42,2600.05 6143.33,3454.93 6106.1,8989.65 3406.5,5492.92 5840.42,2600.05"
         style="fill:#444957;fill-opacity:1;fill-rule:nonzero;stroke:none"
         id="path44" /><path
         d="m 3439.81,2071.45 -1828.09,1189.76 821.44,-2417.8 1669.77,796.46 -663.1,431.57 c -0.01,0 -0.01,0.01 -0.02,0.01"
         style="fill:#444957;fill-opacity:1;fill-rule:nonzero;stroke:none"
         id="path46" /><path
         d="M 1026.71,0 H 6622.62 L 4250.29,1543.96 Z"
         style="fill:#444957;fill-opacity:1;fill-rule:nonzero;stroke:none"
         id="path48" /><path
         d="M 14400,268.172 V 6320.44 L 13260.9,4006.61 Z"
         style="fill:#444957;fill-opacity:1;fill-rule:nonzero;stroke:none"
         id="path50" /><path
         d="M 4584.39,9800 H 82.3672 L 1348.99,7010.03 Z"
         style="fill:#444957;fill-opacity:1;fill-rule:nonzero;stroke:none"
         id="path52" /><g
         id="g54"><g
           id="g56"
           clip-path="url(#clipPath60)"><path
             d="M 9527.21,3671.46 8933.97,5039.54 10831.9,9673.27 12819.4,7894.51 Z M 10112.7,252.109 9223.22,3037.54 12068,6686.69 Z M 9080.96,3099.02 c -0.06,-0.07 -0.12,-0.14 -0.18,-0.22 L 6743.31,100.43 5419.21,962.191 5925.28,2390.43 9306.02,3387.71 Z M 3539.17,2185.75 2920.2,3549.16 3348.38,5329 5782.33,2436.1 5289.89,1046.35 Z M 2433.16,843.41 1611.72,3261.21 3439.81,2071.45 c 0.01,0 0.01,-0.01 0.02,-0.01 l 663.1,-431.57 z M 1413.63,6867.65 4128.49,9212.96 2819.36,3771.29 Z m 4692.47,2122 37.23,-5534.72 L 5840.42,2600.05 3406.5,5492.92 Z M 7721.29,7459.11 9406.13,3573.64 5987.17,2565.07 Z M 10637.5,9594.54 8850.62,5231.78 7807.57,7637.18 Z M 14400,6660.03 13197.1,4216.3 12340.3,7035.96 14400,9678.01 V 9800 h -95.1 L 12911.9,8013.09 10915.2,9800 h -244.3 L 7862.46,7857.53 8554.83,9800 h -158.9 L 6290.55,3870.39 6252.72,9800 h -150.36 l 2.1,-567.01 -2639.32,-3418.66 858.1,3566.88 488.88,418.79 H 4584.39 L 1348.99,7010.03 82.3672,9800 H 0 V 9618.57 L 1253.31,6857.93 c 0.06,-0.14 0.13,-0.27 0.19,-0.41 L 3305.36,2337.93 0,4491.57 V 4312.36 L 1408.32,3393.59 2296.83,778.379 678.57,0 h 348.14 L 4250.29,1543.96 6622.62,0 h 232.59 L 9111.52,2894.26 10035.7,0 h 157.2 L 12257.2,6793.43 14325,0 h 75 V 268.172 L 13260.9,4006.61 14400,6320.44 v 339.59"
             style="fill:url(#radialGradient66);fill-opacity:1;fill-rule:nonzero;stroke:none"
             id="path68" /></g></g></g></g></svg>
