<svg id="visual" viewBox="0 0 900 600" width="900" height="600" xmlns="http://www.w3.org/2000/svg" xmlns:xlink="http://www.w3.org/1999/xlink" version="1.1"><rect x="0" y="0" width="900" height="600" fill="#bbbbbb"></rect><path d="M0 369L21.5 373.7C43 378.3 86 387.7 128.8 400.7C171.7 413.7 214.3 430.3 257.2 424.8C300 419.3 343 391.7 385.8 380.5C428.7 369.3 471.3 374.7 514.2 385.5C557 396.3 600 412.7 642.8 416.8C685.7 421 728.3 413 771.2 406.8C814 400.7 857 396.3 878.5 394.2L900 392L900 601L878.5 601C857 601 814 601 771.2 601C728.3 601 685.7 601 642.8 601C600 601 557 601 514.2 601C471.3 601 428.7 601 385.8 601C343 601 300 601 257.2 601C214.3 601 171.7 601 128.8 601C86 601 43 601 21.5 601L0 601Z" fill="#f7770f"></path><path d="M0 447L21.5 444.3C43 441.7 86 436.3 128.8 432.5C171.7 428.7 214.3 426.3 257.2 433.2C300 440 343 456 385.8 457.5C428.7 459 471.3 446 514.2 445.3C557 444.7 600 456.3 642.8 461C685.7 465.7 728.3 463.3 771.2 454.8C814 446.3 857 431.7 878.5 424.3L900 417L900 601L878.5 601C857 601 814 601 771.2 601C728.3 601 685.7 601 642.8 601C600 601 557 601 514.2 601C471.3 601 428.7 601 385.8 601C343 601 300 601 257.2 601C214.3 601 171.7 601 128.8 601C86 601 43 601 21.5 601L0 601Z" fill="#f6473a"></path><path d="M0 455L21.5 463.2C43 471.3 86 487.7 128.8 486.8C171.7 486 214.3 468 257.2 461.3C300 454.7 343 459.3 385.8 468.3C428.7 477.3 471.3 490.7 514.2 486.7C557 482.7 600 461.3 642.8 450.3C685.7 439.3 728.3 438.7 771.2 447.8C814 457 857 476 878.5 485.5L900 495L900 601L878.5 601C857 601 814 601 771.2 601C728.3 601 685.7 601 642.8 601C600 601 557 601 514.2 601C471.3 601 428.7 601 385.8 601C343 601 300 601 257.2 601C214.3 601 171.7 601 128.8 601C86 601 43 601 21.5 601L0 601Z" fill="#e5035a"></path><path d="M0 524L21.5 520.8C43 517.7 86 511.3 128.8 508.3C171.7 505.3 214.3 505.7 257.2 502C300 498.3 343 490.7 385.8 488.3C428.7 486 471.3 489 514.2 493.3C557 497.7 600 503.3 642.8 506.5C685.7 509.7 728.3 510.3 771.2 509.2C814 508 857 505 878.5 503.5L900 502L900 601L878.5 601C857 601 814 601 771.2 601C728.3 601 685.7 601 642.8 601C600 601 557 601 514.2 601C471.3 601 428.7 601 385.8 601C343 601 300 601 257.2 601C214.3 601 171.7 601 128.8 601C86 601 43 601 21.5 601L0 601Z" fill="#c30077"></path><path d="M0 553L21.5 551.2C43 549.3 86 545.7 128.8 541.5C171.7 537.3 214.3 532.7 257.2 529.8C300 527 343 526 385.8 525.8C428.7 525.7 471.3 526.3 514.2 530C557 533.7 600 540.3 642.8 543C685.7 545.7 728.3 544.3 771.2 541.3C814 538.3 857 533.7 878.5 531.3L900 529L900 601L878.5 601C857 601 814 601 771.2 601C728.3 601 685.7 601 642.8 601C600 601 557 601 514.2 601C471.3 601 428.7 601 385.8 601C343 601 300 601 257.2 601C214.3 601 171.7 601 128.8 601C86 601 43 601 21.5 601L0 601Z" fill="#90008d"></path></svg>