<svg id="visual" viewBox="0 0 900 600" width="900" height="600" xmlns="http://www.w3.org/2000/svg"
  xmlns:xlink="http://www.w3.org/1999/xlink" version="1.1">
  <rect x="0" y="0" width="900" height="600" fill="#bbbbbb"></rect>
  <path
    d="M0 398L21.5 389.8C43 381.7 86 365.3 128.8 357.7C171.7 350 214.3 351 257.2 355.8C300 360.7 343 369.3 385.8 371.2C428.7 373 471.3 368 514.2 367.7C557 367.3 600 371.7 642.8 371.7C685.7 371.7 728.3 367.3 771.2 363C814 358.7 857 354.3 878.5 352.2L900 350L900 601L878.5 601C857 601 814 601 771.2 601C728.3 601 685.7 601 642.8 601C600 601 557 601 514.2 601C471.3 601 428.7 601 385.8 601C343 601 300 601 257.2 601C214.3 601 171.7 601 128.8 601C86 601 43 601 21.5 601L0 601Z"
    fill="#f7770f"></path>
  <path
    d="M0 402L21.5 407.2C43 412.3 86 422.7 128.8 429.5C171.7 436.3 214.3 439.7 257.2 437C300 434.3 343 425.7 385.8 428.2C428.7 430.7 471.3 444.3 514.2 440.3C557 436.3 600 414.7 642.8 410.8C685.7 407 728.3 421 771.2 433C814 445 857 455 878.5 460L900 465L900 601L878.5 601C857 601 814 601 771.2 601C728.3 601 685.7 601 642.8 601C600 601 557 601 514.2 601C471.3 601 428.7 601 385.8 601C343 601 300 601 257.2 601C214.3 601 171.7 601 128.8 601C86 601 43 601 21.5 601L0 601Z"
    fill="#f6473a"></path>
  <path
    d="M0 480L21.5 481.8C43 483.7 86 487.3 128.8 481.2C171.7 475 214.3 459 257.2 451.5C300 444 343 445 385.8 446.8C428.7 448.7 471.3 451.3 514.2 462.2C557 473 600 492 642.8 492C685.7 492 728.3 473 771.2 461.2C814 449.3 857 444.7 878.5 442.3L900 440L900 601L878.5 601C857 601 814 601 771.2 601C728.3 601 685.7 601 642.8 601C600 601 557 601 514.2 601C471.3 601 428.7 601 385.8 601C343 601 300 601 257.2 601C214.3 601 171.7 601 128.8 601C86 601 43 601 21.5 601L0 601Z"
    fill="#e5035a"></path>
  <path
    d="M0 495L21.5 493.7C43 492.3 86 489.7 128.8 487.3C171.7 485 214.3 483 257.2 485.3C300 487.7 343 494.3 385.8 500C428.7 505.7 471.3 510.3 514.2 512.5C557 514.7 600 514.3 642.8 514C685.7 513.7 728.3 513.3 771.2 513.7C814 514 857 515 878.5 515.5L900 516L900 601L878.5 601C857 601 814 601 771.2 601C728.3 601 685.7 601 642.8 601C600 601 557 601 514.2 601C471.3 601 428.7 601 385.8 601C343 601 300 601 257.2 601C214.3 601 171.7 601 128.8 601C86 601 43 601 21.5 601L0 601Z"
    fill="#c30077"></path>
  <path
    d="M0 548L21.5 545C43 542 86 536 128.8 538.3C171.7 540.7 214.3 551.3 257.2 557.8C300 564.3 343 566.7 385.8 568.3C428.7 570 471.3 571 514.2 571.5C557 572 600 572 642.8 566.3C685.7 560.7 728.3 549.3 771.2 548.7C814 548 857 558 878.5 563L900 568L900 601L878.5 601C857 601 814 601 771.2 601C728.3 601 685.7 601 642.8 601C600 601 557 601 514.2 601C471.3 601 428.7 601 385.8 601C343 601 300 601 257.2 601C214.3 601 171.7 601 128.8 601C86 601 43 601 21.5 601L0 601Z"
    fill="#90008d"></path>
</svg>