<svg id="visual" viewBox="0 0 900 600" width="900" height="600" xmlns="http://www.w3.org/2000/svg" xmlns:xlink="http://www.w3.org/1999/xlink" version="1.1"><rect x="0" y="0" width="900" height="600" fill="#bbbbbb"></rect><path d="M0 403L21.5 404.2C43 405.3 86 407.7 128.8 401.2C171.7 394.7 214.3 379.3 257.2 371.3C300 363.3 343 362.7 385.8 370.8C428.7 379 471.3 396 514.2 408.2C557 420.3 600 427.7 642.8 420.8C685.7 414 728.3 393 771.2 392.8C814 392.7 857 413.3 878.5 423.7L900 434L900 601L878.5 601C857 601 814 601 771.2 601C728.3 601 685.7 601 642.8 601C600 601 557 601 514.2 601C471.3 601 428.7 601 385.8 601C343 601 300 601 257.2 601C214.3 601 171.7 601 128.8 601C86 601 43 601 21.5 601L0 601Z" fill="#f7770f"></path><path d="M0 417L21.5 418.7C43 420.3 86 423.7 128.8 423.8C171.7 424 214.3 421 257.2 427.8C300 434.7 343 451.3 385.8 457.8C428.7 464.3 471.3 460.7 514.2 453.3C557 446 600 435 642.8 431.5C685.7 428 728.3 432 771.2 435.5C814 439 857 442 878.5 443.5L900 445L900 601L878.5 601C857 601 814 601 771.2 601C728.3 601 685.7 601 642.8 601C600 601 557 601 514.2 601C471.3 601 428.7 601 385.8 601C343 601 300 601 257.2 601C214.3 601 171.7 601 128.8 601C86 601 43 601 21.5 601L0 601Z" fill="#f6473a"></path><path d="M0 505L21.5 505.2C43 505.3 86 505.7 128.8 503.5C171.7 501.3 214.3 496.7 257.2 497.5C300 498.3 343 504.7 385.8 504.2C428.7 503.7 471.3 496.3 514.2 487.7C557 479 600 469 642.8 462C685.7 455 728.3 451 771.2 451.8C814 452.7 857 458.3 878.5 461.2L900 464L900 601L878.5 601C857 601 814 601 771.2 601C728.3 601 685.7 601 642.8 601C600 601 557 601 514.2 601C471.3 601 428.7 601 385.8 601C343 601 300 601 257.2 601C214.3 601 171.7 601 128.8 601C86 601 43 601 21.5 601L0 601Z" fill="#e5035a"></path><path d="M0 525L21.5 526.7C43 528.3 86 531.7 128.8 525.2C171.7 518.7 214.3 502.3 257.2 495.7C300 489 343 492 385.8 497.3C428.7 502.7 471.3 510.3 514.2 509C557 507.7 600 497.3 642.8 501.3C685.7 505.3 728.3 523.7 771.2 528.7C814 533.7 857 525.3 878.5 521.2L900 517L900 601L878.5 601C857 601 814 601 771.2 601C728.3 601 685.7 601 642.8 601C600 601 557 601 514.2 601C471.3 601 428.7 601 385.8 601C343 601 300 601 257.2 601C214.3 601 171.7 601 128.8 601C86 601 43 601 21.5 601L0 601Z" fill="#c30077"></path><path d="M0 539L21.5 541C43 543 86 547 128.8 551.3C171.7 555.7 214.3 560.3 257.2 556.8C300 553.3 343 541.7 385.8 539.2C428.7 536.7 471.3 543.3 514.2 549C557 554.7 600 559.3 642.8 557C685.7 554.7 728.3 545.3 771.2 539.5C814 533.7 857 531.3 878.5 530.2L900 529L900 601L878.5 601C857 601 814 601 771.2 601C728.3 601 685.7 601 642.8 601C600 601 557 601 514.2 601C471.3 601 428.7 601 385.8 601C343 601 300 601 257.2 601C214.3 601 171.7 601 128.8 601C86 601 43 601 21.5 601L0 601Z" fill="#90008d"></path></svg>